<mxfile host="app.diagrams.net" agent="Mozilla/5.0 (Windows NT 10.0; Win64; x64) AppleWebKit/537.36 (KHTML, like Gecko) Chrome/137.0.0.0 Safari/537.36" version="27.1.6">
  <diagram id="C5RBs43oDa-KdzZeNtuy" name="Page-1">
    <mxGraphModel dx="1213" dy="730" grid="1" gridSize="10" guides="1" tooltips="1" connect="1" arrows="1" fold="1" page="1" pageScale="1" pageWidth="827" pageHeight="1169" background="none" math="0" shadow="0">
      <root>
        <mxCell id="WIyWlLk6GJQsqaUBKTNV-0" />
        <mxCell id="WIyWlLk6GJQsqaUBKTNV-1" parent="WIyWlLk6GJQsqaUBKTNV-0" />
        <mxCell id="_sltoNjta2bpvik8VhCo-0" value="" style="edgeStyle=orthogonalEdgeStyle;rounded=0;orthogonalLoop=1;jettySize=auto;html=1;dashed=1;" edge="1" parent="WIyWlLk6GJQsqaUBKTNV-1" source="iH5nlDM89wNJWKtH4mdf-3" target="iH5nlDM89wNJWKtH4mdf-16">
          <mxGeometry relative="1" as="geometry" />
        </mxCell>
        <mxCell id="iH5nlDM89wNJWKtH4mdf-3" value="&lt;b&gt;Arduino&lt;/b&gt;&lt;div&gt;Opsamling og videresendelse&amp;nbsp;&lt;/div&gt;&lt;div&gt;af inputs fra knapper&lt;/div&gt;" style="rounded=0;whiteSpace=wrap;html=1;" parent="WIyWlLk6GJQsqaUBKTNV-1" vertex="1">
          <mxGeometry x="320" y="335" width="180" height="100" as="geometry" />
        </mxCell>
        <mxCell id="iH5nlDM89wNJWKtH4mdf-6" value="" style="endArrow=classic;html=1;rounded=0;entryX=0.25;entryY=0;entryDx=0;entryDy=0;" parent="WIyWlLk6GJQsqaUBKTNV-1" target="iH5nlDM89wNJWKtH4mdf-3" edge="1">
          <mxGeometry width="50" height="50" relative="1" as="geometry">
            <mxPoint x="320" y="240" as="sourcePoint" />
            <mxPoint x="390" y="260" as="targetPoint" />
          </mxGeometry>
        </mxCell>
        <mxCell id="iH5nlDM89wNJWKtH4mdf-7" value="" style="endArrow=classic;html=1;rounded=0;entryX=0.5;entryY=0;entryDx=0;entryDy=0;" parent="WIyWlLk6GJQsqaUBKTNV-1" target="iH5nlDM89wNJWKtH4mdf-3" edge="1">
          <mxGeometry width="50" height="50" relative="1" as="geometry">
            <mxPoint x="410" y="240" as="sourcePoint" />
            <mxPoint x="390" y="260" as="targetPoint" />
          </mxGeometry>
        </mxCell>
        <mxCell id="iH5nlDM89wNJWKtH4mdf-8" value="" style="endArrow=classic;html=1;rounded=0;entryX=0.75;entryY=0;entryDx=0;entryDy=0;" parent="WIyWlLk6GJQsqaUBKTNV-1" target="iH5nlDM89wNJWKtH4mdf-3" edge="1">
          <mxGeometry width="50" height="50" relative="1" as="geometry">
            <mxPoint x="500" y="240" as="sourcePoint" />
            <mxPoint x="510" y="240" as="targetPoint" />
          </mxGeometry>
        </mxCell>
        <mxCell id="iH5nlDM89wNJWKtH4mdf-9" value="Knap:&lt;br&gt;&amp;nbsp;&lt;b&gt;God&lt;/b&gt;" style="rounded=0;whiteSpace=wrap;html=1;align=center;" parent="WIyWlLk6GJQsqaUBKTNV-1" vertex="1">
          <mxGeometry x="270" y="200" width="80" height="40" as="geometry" />
        </mxCell>
        <mxCell id="iH5nlDM89wNJWKtH4mdf-10" value="Knap:&lt;br&gt;&lt;b&gt;&amp;nbsp;Dårlig&lt;/b&gt;" style="rounded=0;whiteSpace=wrap;html=1;align=center;" parent="WIyWlLk6GJQsqaUBKTNV-1" vertex="1">
          <mxGeometry x="460" y="200" width="80" height="40" as="geometry" />
        </mxCell>
        <mxCell id="iH5nlDM89wNJWKtH4mdf-11" value="Knap:&lt;br&gt;&amp;nbsp;&lt;b&gt;Mid&lt;/b&gt;" style="rounded=0;whiteSpace=wrap;html=1;align=center;" parent="WIyWlLk6GJQsqaUBKTNV-1" vertex="1">
          <mxGeometry x="370" y="200" width="80" height="40" as="geometry" />
        </mxCell>
        <mxCell id="iH5nlDM89wNJWKtH4mdf-13" value="Forbindelse til&amp;nbsp;&lt;div&gt;server&lt;/div&gt;" style="text;html=1;align=center;verticalAlign=middle;whiteSpace=wrap;rounded=0;" parent="WIyWlLk6GJQsqaUBKTNV-1" vertex="1">
          <mxGeometry x="330" y="450" width="60" height="30" as="geometry" />
        </mxCell>
        <mxCell id="iH5nlDM89wNJWKtH4mdf-14" value="&lt;b&gt;LCD - skærm&lt;/b&gt;&lt;div&gt;Status raport fra arduino til bla. error handling&lt;/div&gt;" style="rounded=0;whiteSpace=wrap;html=1;" parent="WIyWlLk6GJQsqaUBKTNV-1" vertex="1">
          <mxGeometry x="339" y="90" width="150" height="80" as="geometry" />
        </mxCell>
        <mxCell id="iH5nlDM89wNJWKtH4mdf-15" value="" style="endArrow=classic;html=1;rounded=0;entryX=0;entryY=0.5;entryDx=0;entryDy=0;exitX=0;exitY=0.5;exitDx=0;exitDy=0;" parent="WIyWlLk6GJQsqaUBKTNV-1" source="iH5nlDM89wNJWKtH4mdf-3" target="iH5nlDM89wNJWKtH4mdf-14" edge="1">
          <mxGeometry width="50" height="50" relative="1" as="geometry">
            <mxPoint x="110" y="420" as="sourcePoint" />
            <mxPoint x="390" y="390" as="targetPoint" />
            <Array as="points">
              <mxPoint x="230" y="370" />
              <mxPoint x="230" y="150" />
            </Array>
          </mxGeometry>
        </mxCell>
        <mxCell id="_sltoNjta2bpvik8VhCo-12" value="" style="edgeStyle=orthogonalEdgeStyle;rounded=0;orthogonalLoop=1;jettySize=auto;html=1;" edge="1" parent="WIyWlLk6GJQsqaUBKTNV-1" source="iH5nlDM89wNJWKtH4mdf-16" target="_sltoNjta2bpvik8VhCo-11">
          <mxGeometry relative="1" as="geometry" />
        </mxCell>
        <mxCell id="iH5nlDM89wNJWKtH4mdf-16" value="&lt;b&gt;Netværks Server&amp;nbsp;&lt;/b&gt;&lt;div&gt;Forbindelse mellem&amp;nbsp;&lt;br&gt;&lt;div&gt;data lageret og arduino&lt;/div&gt;&lt;/div&gt;" style="rounded=0;whiteSpace=wrap;html=1;" parent="WIyWlLk6GJQsqaUBKTNV-1" vertex="1">
          <mxGeometry x="380" y="500" width="160" height="90" as="geometry" />
        </mxCell>
        <mxCell id="_sltoNjta2bpvik8VhCo-1" value="" style="endArrow=none;dashed=1;html=1;dashPattern=1 3;strokeWidth=2;rounded=0;" edge="1" parent="WIyWlLk6GJQsqaUBKTNV-1">
          <mxGeometry width="50" height="50" relative="1" as="geometry">
            <mxPoint x="120" y="280" as="sourcePoint" />
            <mxPoint x="720" y="280" as="targetPoint" />
          </mxGeometry>
        </mxCell>
        <mxCell id="_sltoNjta2bpvik8VhCo-2" value="" style="endArrow=none;dashed=1;html=1;dashPattern=1 3;strokeWidth=2;rounded=0;" edge="1" parent="WIyWlLk6GJQsqaUBKTNV-1">
          <mxGeometry width="50" height="50" relative="1" as="geometry">
            <mxPoint x="115" y="620" as="sourcePoint" />
            <mxPoint x="705" y="620" as="targetPoint" />
          </mxGeometry>
        </mxCell>
        <mxCell id="_sltoNjta2bpvik8VhCo-3" value="&lt;font style=&quot;font-size: 30px;&quot;&gt;Præsentation&lt;/font&gt;" style="text;html=1;align=center;verticalAlign=middle;whiteSpace=wrap;rounded=0;" vertex="1" parent="WIyWlLk6GJQsqaUBKTNV-1">
          <mxGeometry x="50" y="140" width="140" height="100" as="geometry" />
        </mxCell>
        <mxCell id="_sltoNjta2bpvik8VhCo-6" value="&lt;font style=&quot;font-size: 45px;&quot;&gt;Logik&lt;/font&gt;" style="text;html=1;align=center;verticalAlign=middle;whiteSpace=wrap;rounded=0;" vertex="1" parent="WIyWlLk6GJQsqaUBKTNV-1">
          <mxGeometry x="70" y="430" width="60" height="30" as="geometry" />
        </mxCell>
        <mxCell id="_sltoNjta2bpvik8VhCo-9" value="&lt;font style=&quot;font-size: 45px;&quot;&gt;Data&lt;/font&gt;" style="text;html=1;align=center;verticalAlign=middle;whiteSpace=wrap;rounded=0;" vertex="1" parent="WIyWlLk6GJQsqaUBKTNV-1">
          <mxGeometry x="60" y="650" width="60" height="30" as="geometry" />
        </mxCell>
        <mxCell id="_sltoNjta2bpvik8VhCo-11" value="&lt;b&gt;Data lager&lt;/b&gt;&lt;div&gt;Sd kort, hardrive... etc.&lt;/div&gt;" style="whiteSpace=wrap;html=1;rounded=0;" vertex="1" parent="WIyWlLk6GJQsqaUBKTNV-1">
          <mxGeometry x="560" y="640" width="160" height="85" as="geometry" />
        </mxCell>
        <mxCell id="_sltoNjta2bpvik8VhCo-16" style="edgeStyle=orthogonalEdgeStyle;rounded=0;orthogonalLoop=1;jettySize=auto;html=1;" edge="1" parent="WIyWlLk6GJQsqaUBKTNV-1" source="_sltoNjta2bpvik8VhCo-13" target="_sltoNjta2bpvik8VhCo-17">
          <mxGeometry relative="1" as="geometry">
            <mxPoint x="620" y="160" as="targetPoint" />
          </mxGeometry>
        </mxCell>
        <mxCell id="_sltoNjta2bpvik8VhCo-13" value="&lt;b&gt;Computer&lt;/b&gt;&lt;div&gt;&amp;nbsp;Bearbejdning af data og udregning af grafik&lt;/div&gt;" style="rounded=0;whiteSpace=wrap;html=1;" vertex="1" parent="WIyWlLk6GJQsqaUBKTNV-1">
          <mxGeometry x="555" y="335" width="170" height="100" as="geometry" />
        </mxCell>
        <mxCell id="_sltoNjta2bpvik8VhCo-14" value="" style="endArrow=classic;html=1;rounded=0;entryX=0.5;entryY=1;entryDx=0;entryDy=0;exitX=0.75;exitY=0;exitDx=0;exitDy=0;" edge="1" parent="WIyWlLk6GJQsqaUBKTNV-1" source="_sltoNjta2bpvik8VhCo-11" target="_sltoNjta2bpvik8VhCo-13">
          <mxGeometry width="50" height="50" relative="1" as="geometry">
            <mxPoint x="640" y="570" as="sourcePoint" />
            <mxPoint x="690" y="520" as="targetPoint" />
            <Array as="points">
              <mxPoint x="680" y="510" />
            </Array>
          </mxGeometry>
        </mxCell>
        <mxCell id="_sltoNjta2bpvik8VhCo-17" value="&lt;b&gt;Skærm&lt;/b&gt;&lt;div&gt;Visning af grafer og data&lt;/div&gt;" style="rounded=0;whiteSpace=wrap;html=1;" vertex="1" parent="WIyWlLk6GJQsqaUBKTNV-1">
          <mxGeometry x="570" y="100" width="140" height="80" as="geometry" />
        </mxCell>
      </root>
    </mxGraphModel>
  </diagram>
</mxfile>
